<?xml version="1.0" standalone="no"?>
<!DOCTYPE svg PUBLIC "-//W3C//DTD SVG 20010904//EN"
 "http://www.w3.org/TR/2001/REC-SVG-20010904/DTD/svg10.dtd">
<svg version="1.0" xmlns="http://www.w3.org/2000/svg"
 width="1715.000000pt" height="528.000000pt" viewBox="0 0 1715.000000 528.000000"
 preserveAspectRatio="xMidYMid meet">
<metadata>
Created by potrace 1.16, written by Peter Selinger 2001-2019
</metadata>
<g transform="translate(0.000000,528.000000) scale(0.100000,-0.100000)"
fill="#000000" stroke="none">
<path d="M270 2705 l0 -2285 2830 0 2830 0 0 2285 0 2285 -2830 0 -2830 0 0
-2285z m5358 -3 l2 -1992 -2527 2 -2528 3 -3 1980 c-1 1089 0 1986 3 1993 3
10 514 12 2527 10 l2523 -3 3 -1993z"/>
<path d="M3976 3837 c-32 -122 -88 -286 -178 -522 -100 -265 -225 -568 -248
-605 -7 -12 -15 -9 -48 17 -166 134 -444 345 -524 399 -130 87 -305 175 -409
205 -72 21 -104 24 -224 23 -251 -3 -413 -68 -562 -228 -161 -171 -243 -412
-243 -710 0 -170 16 -265 64 -376 118 -277 357 -445 716 -505 138 -23 388 -16
501 14 244 64 481 228 645 446 61 82 185 281 234 377 19 38 41 68 47 68 7 0
48 -19 91 -43 145 -80 352 -157 423 -157 28 0 30 -12 14 -85 -8 -38 -19 -119
-26 -182 l-12 -113 39 -34 c48 -42 123 -81 134 -70 4 5 19 68 33 139 31 153
73 305 90 322 7 6 61 16 120 21 86 8 116 16 152 37 25 14 45 33 45 42 0 17 3
17 -155 -12 -44 -8 -93 -14 -108 -15 -25 0 -28 3 -22 23 16 53 143 364 212
516 146 325 173 390 183 438 18 97 -14 145 -138 207 -48 24 -101 47 -118 50
l-32 7 -17 -78 c-10 -43 -53 -177 -97 -298 -87 -241 -155 -459 -214 -689 l-37
-148 -41 6 c-104 17 -326 105 -433 173 l-52 33 44 89 c25 49 96 207 159 352
62 145 144 331 180 412 100 223 104 270 27 347 -61 60 -208 134 -215 107z
m-1386 -634 c135 -38 407 -207 670 -418 80 -64 164 -128 187 -143 24 -15 45
-33 48 -40 5 -14 -90 -192 -177 -330 -192 -306 -429 -477 -710 -513 -196 -25
-445 27 -610 127 -110 67 -211 205 -254 349 -28 92 -25 320 5 439 68 266 219
437 454 515 126 42 271 47 387 14z"/>
<path d="M6090 2650 l0 -2290 5245 0 5245 0 -2 1148 -3 1147 -162 3 -163 2 1
-192 c0 -255 2 -265 58 -295 24 -13 57 -23 73 -23 18 0 28 -5 28 -15 0 -13
-33 -15 -240 -15 -200 0 -240 2 -240 14 0 9 16 17 41 21 23 4 55 19 73 35 l31
28 3 440 3 440 -38 36 c-21 20 -49 39 -63 42 -45 10 -50 13 -50 30 0 14 7 16
38 10 20 -3 129 -6 240 -6 150 0 203 -3 200 -12 -2 -6 -22 -16 -44 -23 -23 -7
-54 -20 -71 -30 -38 -22 -43 -51 -43 -261 l0 -154 143 0 c78 0 152 -3 165 -6
l22 -6 0 1111 0 1111 -5245 0 -5245 0 0 -2290z m6030 568 c0 -4 48 -117 106
-250 59 -134 147 -335 196 -448 138 -315 163 -355 229 -369 18 -4 34 -12 37
-19 3 -9 -49 -12 -223 -12 -208 0 -226 1 -223 17 2 10 17 20 36 24 41 8 72 36
72 64 0 23 -30 103 -74 198 l-27 57 -223 0 -223 0 -28 -67 c-15 -38 -41 -99
-57 -136 -16 -38 -28 -73 -25 -80 2 -6 29 -20 61 -31 32 -12 58 -25 57 -31 -1
-13 -292 -25 -306 -12 -6 5 -1 15 15 27 14 11 37 28 51 39 31 24 105 171 219
436 43 99 96 220 119 268 23 49 66 146 97 215 60 137 80 164 101 135 7 -9 13
-20 13 -25z m3080 0 c19 -6 56 -21 82 -34 l47 -24 41 35 c23 19 46 35 51 35 5
0 9 -80 9 -181 0 -160 -2 -180 -16 -177 -10 2 -24 28 -38 70 -28 89 -70 146
-141 188 -51 30 -66 34 -130 35 -62 0 -77 -4 -114 -28 -54 -36 -87 -99 -77
-152 11 -56 71 -108 255 -220 253 -155 325 -237 323 -371 -1 -108 -73 -209
-192 -270 -48 -24 -67 -28 -140 -28 -91 0 -171 15 -234 45 -51 24 -72 24 -79
-1 -5 -18 -52 -48 -61 -39 -4 4 -9 298 -7 347 2 33 51 -7 51 -42 0 -13 14 -51
31 -85 84 -169 323 -217 436 -88 91 104 34 212 -185 348 -64 40 -138 85 -164
101 -115 72 -171 158 -171 263 0 199 212 336 423 273z m-7675 -20 c0 -7 -17
-16 -38 -20 -49 -10 -94 -34 -106 -56 -11 -21 -25 -342 -16 -371 6 -21 11 -21
276 -21 l269 0 0 186 0 186 -34 34 c-22 22 -47 35 -74 40 -23 4 -47 13 -53 20
-6 8 -10 14 -8 14 2 0 115 2 252 3 207 2 247 0 245 -12 -2 -8 -25 -19 -51 -26
-27 -7 -61 -24 -75 -39 l-27 -27 1 -451 1 -451 27 -23 c16 -14 46 -26 76 -30
33 -4 50 -11 50 -20 0 -12 -41 -14 -245 -12 -150 2 -246 7 -248 13 -1 5 14 12
33 16 51 9 82 24 105 49 18 20 20 39 23 241 l3 219 -276 0 -277 0 7 -217 c4
-120 12 -227 18 -238 16 -31 38 -43 90 -50 31 -5 47 -12 47 -21 0 -12 -40 -14
-240 -14 -202 0 -240 2 -240 14 0 15 12 20 72 30 25 5 44 17 62 41 l26 34 -2
431 -3 432 -37 33 c-20 19 -55 39 -77 45 -23 6 -41 16 -41 23 0 9 58 11 242 9
181 -1 243 -5 243 -14z m1655 4 c0 -7 -6 -14 -12 -16 -7 -2 -31 -9 -54 -15
-23 -6 -53 -22 -67 -35 l-27 -25 0 -445 0 -445 23 -26 c15 -19 39 -30 80 -38
115 -24 68 -32 -191 -35 -238 -2 -253 -1 -250 15 2 14 15 19 55 21 44 3 56 8
78 33 l25 31 0 444 0 445 -27 24 c-16 14 -46 30 -68 37 -44 13 -67 27 -61 37
2 3 115 6 250 6 193 0 246 -3 246 -13z m778 2 c12 -2 22 -8 22 -13 0 -8 77
-173 272 -581 36 -75 73 -157 83 -183 10 -26 22 -44 26 -40 4 4 60 121 124
258 192 412 263 555 277 559 7 3 82 6 166 8 129 3 152 2 150 -10 -2 -8 -24
-20 -50 -27 -66 -16 -96 -39 -103 -77 -3 -18 -5 -225 -3 -460 l3 -426 24 -26
c17 -18 38 -27 77 -32 36 -4 54 -11 54 -20 0 -12 -43 -14 -245 -14 -211 0
-245 2 -245 15 0 8 6 15 13 15 7 0 36 7 64 15 84 25 83 18 83 472 l-1 388 -21
-40 c-12 -22 -108 -224 -214 -450 -142 -303 -196 -410 -209 -410 -12 0 -35 41
-81 140 -36 77 -76 163 -89 190 -112 241 -197 430 -217 479 -46 114 -48 99
-48 -316 0 -210 3 -393 6 -406 8 -27 43 -47 102 -57 26 -4 42 -12 42 -21 0
-12 -31 -14 -192 -12 -200 3 -239 13 -133 34 63 13 57 9 79 51 14 28 16 84 16
456 0 486 6 453 -95 501 -92 43 -76 52 93 48 81 -1 157 -5 170 -8z m3424 -7
c15 -11 115 -122 507 -566 75 -85 151 -171 168 -190 l32 -36 1 348 c0 393 -1
398 -68 416 -20 6 -48 12 -62 13 -32 4 -34 33 -2 32 12 0 103 -1 203 -2 139
-2 180 -5 177 -14 -3 -8 -30 -16 -63 -19 -47 -5 -64 -12 -82 -33 l-23 -27 0
-504 c0 -313 -4 -506 -10 -510 -9 -6 -72 58 -175 175 -27 30 -150 167 -274
304 -124 137 -250 278 -279 313 -30 34 -58 63 -63 63 -6 0 -9 -142 -7 -380 3
-328 5 -381 19 -395 8 -8 43 -21 77 -27 40 -7 62 -16 62 -25 0 -11 -38 -13
-200 -11 -206 3 -248 13 -142 34 39 8 62 19 79 38 l23 27 0 423 0 424 -39 35
c-47 42 -80 61 -138 76 -24 7 -43 17 -43 24 0 17 297 11 322 -6z"/>
<path d="M12013 2943 c-20 -36 -173 -379 -173 -389 0 -2 86 -4 190 -4 105 0
190 2 190 4 0 2 -22 52 -50 111 -27 58 -66 150 -86 203 -20 53 -39 100 -43
105 -4 4 -17 -10 -28 -30z"/>
<path d="M16636 3195 c4 -9 26 -17 56 -21 97 -13 111 -53 106 -304 l-3 -145
-100 0 -100 0 -3 -32 -3 -33 106 0 107 0 -3 -226 -4 -226 -28 -24 c-16 -13
-38 -24 -50 -24 -38 0 -67 -12 -67 -26 0 -12 42 -14 240 -14 198 0 240 2 240
14 0 9 -21 18 -62 25 -105 18 -98 -18 -98 506 l0 454 30 21 c29 21 60 33 113
44 15 4 27 11 27 16 0 6 -95 10 -255 10 -220 0 -254 -2 -249 -15z"/>
</g>
</svg>
